<svg width="137" height="51" fill="none" xmlns="http://www.w3.org/2000/svg"><path fill-rule="evenodd" clip-rule="evenodd" d="M36 51V18c0 9.941-8.059 18-18 18v15h18z" fill="#1A1D1C"/><path fill-rule="evenodd" clip-rule="evenodd" d="M36 18c0-9.941-8.059-18-18-18S0 8.059 0 18s8.059 18 18 18V18h18z" fill="#1A1D1C"/><path fill-rule="evenodd" clip-rule="evenodd" d="M36 18h19l-9 9 9 9H18c9.941 0 18-8.059 18-18z" fill="#1A1D1C"/><path d="M79.13 14.915h-5.294v2.123h2.82c-.377 1.017-1.296 1.639-2.699 1.639-2.051 0-3.318-1.32-3.318-3.125 0-1.866 1.327-3.186 3.107-3.186 1.191 0 2.141.546 2.579 1.244l2.05-1.183C77.487 11.001 75.783 10 73.762 10c-3.107 0-5.535 2.457-5.535 5.537 0 3.049 2.383 5.506 5.7 5.506 2.957 0 5.204-1.972 5.204-5.218v-.91zm8.216 5.916h2.64l-3.59-10.619H83.32l-3.59 10.619h2.64l.527-1.669h3.921l.528 1.669zm-3.725-3.944l1.237-3.899 1.236 3.899h-2.473zm17.861-1.972h-5.294v2.123h2.82c-.377 1.017-1.297 1.639-2.7 1.639-2.05 0-3.317-1.32-3.317-3.125 0-1.866 1.327-3.186 3.107-3.186 1.191 0 2.141.546 2.579 1.244l2.051-1.183C99.838 11.001 98.134 10 96.113 10c-3.107 0-5.535 2.457-5.535 5.537 0 3.049 2.383 5.506 5.7 5.506 2.956 0 5.204-1.972 5.204-5.218v-.91zm1.888-4.703v10.619h2.413V10.212h-2.413zm13.29 10.619l-3.71-5.446 3.56-5.173h-2.745l-3.228 4.612v-4.612h-2.413v10.619h2.413v-4.915l3.379 4.915h2.744zM76.189 36h.845l-4.087-10.618h-.845L68 36h.844l1.026-2.7h5.293L76.19 36zm-6.017-3.459l2.352-6.173 2.353 6.173h-4.705zm18.473-7.16h-1.01l-3.771 6.28-3.77-6.28h-.996V36h.8v-9.435l3.906 6.522h.135l3.906-6.522V36h.8V25.382zM98.895 36h.844l-4.087-10.618h-.845L90.705 36h.845l1.025-2.7h5.294l1.025 2.7zm-6.018-3.459l2.353-6.173 2.352 6.173h-4.705zM108.469 36h.92l-2.624-4.46a3.134 3.134 0 002.323-3.018c0-1.73-1.403-3.14-3.122-3.14h-4.162V36h.799v-4.354h3.333L108.469 36zm-5.866-9.86h3.363c1.282 0 2.322 1.062 2.322 2.382 0 1.304-1.04 2.366-2.322 2.366h-3.363V26.14zm16.012-.758h-.905l-3.333 5.476-3.348-5.476h-.905l3.846 6.25V36h.799v-4.369l3.846-6.25zM126.354 36h.845l-4.087-10.618h-.845L118.165 36h.845l1.025-2.7h5.294l1.025 2.7zm-6.017-3.459l2.352-6.173 2.353 6.173h-4.705zm15.864-7.16v9.132l-6.244-9.131h-.694V36h.8v-9.132L136.291 36H137V25.382h-.799z" fill="#1A1D1C"/></svg>