<svg width="70" height="26" fill="none" xmlns="http://www.w3.org/2000/svg"><path d="M11.295 5.15H6.03v2.1h2.805C8.46 8.255 7.545 8.87 6.15 8.87c-2.04 0-3.3-1.305-3.3-3.09 0-1.845 1.32-3.15 3.09-3.15 1.185 0 2.13.54 2.565 1.23l2.04-1.17C9.66 1.28 7.965.289999 5.955.289999 2.865.289999.45 2.72.45 5.765c0 3.015 2.37 5.445 5.67 5.445 2.94 0 5.175-1.95 5.175-5.16v-.9zM19.4672 11h2.625L18.5222.499999h-3.06L11.8922 11h2.625l.525-1.65h3.9l.525 1.65zm-3.705-3.9l1.23-3.855 1.23 3.855h-2.46zm17.7644-1.95h-5.265v2.1h2.805c-.375 1.005-1.29 1.62-2.685 1.62-2.04 0-3.3-1.305-3.3-3.09 0-1.845 1.32-3.15 3.09-3.15 1.185 0 2.13.54 2.565 1.23l2.04-1.17c-.885-1.41-2.58-2.400001-4.59-2.400001-3.09 0-5.505 2.430001-5.505 5.475001 0 3.015 2.37 5.445 5.67 5.445 2.94 0 5.175-1.95 5.175-5.16v-.9zM35.4047.499999V11h2.4V.499999h-2.4zM48.6238 11l-3.69-5.385 3.54-5.115001h-2.73L42.5338 5.06V.499999h-2.4V11h2.4V6.14l3.36 4.86h2.73zM8.37 26h.84L5.145 15.5h-.84L.225 26h.84l1.02-2.67H7.35L8.37 26zm-5.985-3.42l2.34-6.105 2.34 6.105h-4.68zm18.3736-7.08h-1.005l-3.75 6.21-3.75-6.21h-.99V26h.795v-9.33l3.885 6.45h.135l3.885-6.45V26h.795V15.5zM30.9532 26h.84l-4.065-10.5h-.84l-4.08 10.5h.84l1.02-2.67h5.265l1.02 2.67zm-5.985-3.42l2.34-6.105 2.34 6.105h-4.68zM40.4768 26h.915l-2.61-4.41c1.335-.36 2.31-1.56 2.31-2.985 0-1.71-1.395-3.105-3.105-3.105h-4.14V26h.795v-4.305h3.315l2.52 4.305zm-5.835-9.75h3.345c1.275 0 2.31 1.05 2.31 2.355 0 1.29-1.035 2.34-2.31 2.34h-3.345V16.25zm15.9262-.75h-.9l-3.315 5.415-3.33-5.415h-.9l3.825 6.18V26h.795v-4.32l3.825-6.18zM58.2655 26h.84l-4.065-10.5h-.84l-4.08 10.5h.84l1.02-2.67h5.265l1.02 2.67zm-5.985-3.42l2.34-6.105 2.34 6.105h-4.68zm15.7786-7.08v9.03l-6.21-9.03h-.69V26h.795v-9.03l6.195 9.03h.705V15.5h-.795z" fill="#FAFAFA"/></svg>