<?xml version="1.0" standalone="no"?>
<!DOCTYPE svg PUBLIC "-//W3C//DTD SVG 1.1//EN" "http://www.w3.org/Graphics/SVG/1.1/DTD/svg11.dtd" >
<svg>
<metadata>
Created by FontForge 20090622 at Tue Jul 14 18:54:12 2020
 By deploy user
Copyright (c) 2020, Gagik Amaryan

Learn more at gagik.co.
</metadata>
<defs>
<font id="Gitunik" horiz-adv-x="800" >
  <font-face 
    font-family="Gitunik"
    font-weight="400"
    font-stretch="normal"
    units-per-em="1000"
    panose-1="2 0 10 3 0 0 0 0 0 0"
    ascent="800"
    descent="-200"
    x-height="615"
    cap-height="620"
    bbox="-20 -116 1381 666"
    underline-thickness="50"
    underline-position="-50"
    unicode-range="U+0020-U+007A"
  />
<missing-glyph horiz-adv-x="364" 
d="M33 0v666h265v-666h-265zM66 33h199v600h-199v-600z" />
    <glyph glyph-name=".notdef" horiz-adv-x="364" 
d="M33 0v666h265v-666h-265zM66 33h199v600h-199v-600z" />
    <glyph glyph-name=".null" horiz-adv-x="0" 
 />
    <glyph glyph-name="nonmarkingreturn" horiz-adv-x="333" 
 />
    <glyph glyph-name="space" unicode=" " horiz-adv-x="650" 
 />
    <glyph glyph-name="exclam" unicode="!" horiz-adv-x="417" 
d="M380 318h-133l33 57l53 91h133zM556 620l-90 -154h-133l90 154h133zM556 620h61l-90 -154h-61zM466 466h61l-119 -204h-61l33 56zM247 318l-33 -56h-62l33 56h62zM247 318h-62l33 57h62zM333 466l-53 -91h-62l52 91h63zM333 466h-63l90 154h63zM214 262l33 56h133
l-33 -56h-133zM61 0h-61l50 85l25 43h61zM269 128l-74 -128h-134l75 128h133zM331 128l-25 -43l-50 -85h-61l74 128h62zM408 262l-26 -46h-61l26 46h61zM214 262h133l-26 -46h-134zM214 262l-27 -46h-61l26 46h62zM100 171l26 45h61l-26 -45h-61zM161 171l26 45h134l-27 -45
h-133zM294 171l27 45h61l-27 -45h-61z" />
    <glyph glyph-name="quotedbl" unicode="&#x22;" horiz-adv-x="416" 
d="M299 620h133l-99 -171h-133zM524 620h133l-100 -171h-133z" />
    <glyph glyph-name="numbersign" unicode="#" horiz-adv-x="636" 
d="M136 0h-120l89 154l16 29l16 28l88 -57zM310 302h132l-33 -57l-52 -91h-132zM395 449l49 86h132l-49 -86h-132zM527 449l49 86l49 85h121l-49 -85l-48 -86l-21 -37l-30 -54h-124zM442 302l32 56h124l-32 -56h-124zM442 302h124l-157 -57zM357 154l157 57l-17 -31
l-102 -180h-127zM409 245l157 57l-52 -91l-157 -57zM631 211h-117l52 91h117zM274 449h-121l50 86h120zM697 535h120l-49 -86h-119zM16 211l53 91h120l-52 -91h-121zM225 154l-88 57l52 91h121zM310 302h-121l43 73l21 37l21 37h121zM395 449h-121l49 86h121zM493 620
l-49 -85h-121l50 85h120zM631 211l-18 -31h-116l17 31h117zM137 211l-16 -28h-121l16 28h121zM274 449l-21 -37h-121l21 37h121zM649 449h119l-21 -37h-119z" />
    <glyph glyph-name="quotesingle" unicode="'" horiz-adv-x="192" 
d="M299 620h133l-99 -171h-133z" />
    <glyph glyph-name="parenleft" unicode="(" horiz-adv-x="458" 
d="M380 318h-133l33 57l53 91h133zM556 620l-90 -154h-133l89 154h134zM556 620h61l-90 -154h-61zM247 318l-33 -56h-62l33 56h62zM247 318h-62l33 57h62zM333 466l-53 -91h-62l52 91h63zM333 466h-63l90 154h62zM214 262l33 56h133l-33 -56h-133zM61 0h-61l50 85l25 43h61z
M269 128l-74 -128h-134l75 128h133zM330 128l-24 -43l-50 -85h-61l74 128h61zM214 262h133l-26 -46h-134zM214 262l-27 -46h-61l26 46h62zM100 171l26 45h61l-26 -45h-61zM161 171l26 45h134l-27 -45h-133zM416 171l-99 -171h-61l50 85l24 43l25 43h61zM355 171l-25 -43h-61
l25 43h61zM294 171l-25 -43h-133l25 43h133zM161 171l-25 -43h-61l25 43h61zM678 620l-90 -154h-61l90 154h61z" />
    <glyph glyph-name="parenright" unicode=")" horiz-adv-x="458" 
d="M298 302h134l-33 -57l-53 -91h-134zM122 0l90 154h134l-90 -154h-134zM122 0h-61l90 154h61zM432 302l32 56h62l-33 -56h-61zM432 302h61l-33 -57h-61zM346 154l53 91h61l-52 -91h-62zM346 154h62l-89 -154h-63zM464 358l-32 -56h-134l33 56h133zM617 620h61l-50 -85
l-25 -43h-61zM409 492l75 128h133l-75 -128h-133zM348 492l25 43l49 85h62l-75 -128h-61zM464 358h-133l27 46h133zM464 358l27 46h61l-26 -46h-62zM578 449l-26 -45h-61l26 45h61zM517 449l-26 -45h-133l26 45h133zM262 449l99 171h61l-49 -85l-25 -43l-25 -43h-61z
M323 449l25 43h61l-25 -43h-61zM384 449l25 43h133l-25 -43h-133zM517 449l25 43h61l-25 -43h-61zM0 0l90 154h61l-90 -154h-61z" />
    <glyph glyph-name="comma" unicode="," horiz-adv-x="334" 
d="M0 0l90 154h244l-90 -154h-122h-61h-61zM55 -116l67 116h122zM122 0l-67 -116h-31l67 116h31z" />
    <glyph glyph-name="hyphen" unicode="-" horiz-adv-x="835" 
d="M572 302l32 56h242l-33 -56h-241zM572 302h241l-32 -57h-242zM572 302l-33 -57h-131l32 57h132zM440 302l33 56h131l-32 -56h-132zM513 200l26 45h242l-26 -45h-242zM231 358h242l-33 -56l-32 -57l-26 -45h-242l26 45zM382 200l26 45h131l-26 -45h-131z" />
    <glyph glyph-name="period" unicode="." horiz-adv-x="334" 
d="M-20 0l90 154h244l-90 -154h-244z" />
    <glyph glyph-name="slash" unicode="/" horiz-adv-x="477" 
d="M298 302h134l-33 -57l-53 -91h-134zM123 0l89 154h134l-90 -154h-133zM123 0h-62l90 154h61zM465 358l-33 -56h-134l33 56h134zM409 492l75 128h133l-75 -128h-133zM348 492l25 43l50 85h61l-75 -128h-61zM465 358h-134l27 46h133zM517 449l-26 -45h-133l26 45h133z
M262 449l99 171h62l-50 -85l-25 -43l-25 -43h-61zM323 449l25 43h61l-25 -43h-61zM384 449l25 43h133l-25 -43h-133zM0 0l90 154h61l-90 -154h-61zM212 154h-61l119 204h61l-33 -56zM323 449l-26 -45l-27 -46l-119 -204h-61l172 295h61zM384 449l-26 -45h-61l26 45h61z
M270 358l27 46h61l-27 -46h-61z" />
    <glyph glyph-name="colon" unicode=":" horiz-adv-x="384" 
d="M0 0l90 154h244l-90 -154h-244zM469 387h-244l86 148h243z" />
    <glyph glyph-name="semicolon" unicode=";" horiz-adv-x="384" 
d="M0 0l90 154h244l-90 -154h-244zM469 387h-244l86 148h243zM0 0l90 154h244l-90 -154h-122h-61h-61zM55 -116l67 116h122zM122 0l-67 -116h-31l67 116h31z" />
    <glyph glyph-name="question" unicode="?" horiz-adv-x="682" 
d="M378 302h134l-33 -57l-53 -91h-134zM292 154h-61l119 204h61l-33 -56zM598 449h61l-52 -91h-62zM512 302l33 56h62l-33 -56h-62zM512 302h62l-33 -57h-62zM426 154l53 91h62l-53 -91h-62zM466 116l-23 -39l-44 -77h-63l67 116h63zM336 0h-134l67 116h134zM269 116
l-67 -116h-62l46 77l22 39h61zM342 449h61l-27 -45h-184l27 45h61h62zM545 358l-33 -56h-134l33 56h67h33h34zM635 302h-61l33 56h61zM721 449l-53 -91h-61l52 91h62zM574 302h61l-33 -57h-61zM342 449l99 171h62l-50 -85l-25 -43l-25 -43h-61zM564 620l-50 -85h-61l50 85
h61zM319 620h122l-99 -171h-123zM514 535l-25 -43h-61l25 43h61zM648 535l-25 -43h-33h-34h-67l25 43h134zM623 492l-25 -43h-33l25 43h33zM565 449h33l-53 -91h-34zM668 358l53 91h61l-53 -91h-61zM668 358h61l-33 -56h-61zM635 302h61l-33 -57h-61zM721 449h-62l61 104
l11 -18l20 -34l5 -9l26 -43h-61zM706 577l14 -24l-61 -104h-61l25 43l25 43l41 70zM564 620h116l9 -15l-41 -70h-134z" />
    <glyph glyph-name="A" unicode="A" horiz-adv-x="792" 
d="M357 620h241h132h242l-151 -262l-33 -56l-32 -57l-52 -91l-89 -154h-242l89 154h-132l-88 -154h-242l89 154zM632 449h-132l-85 -147h132l32 56z" />
    <glyph glyph-name="B" unicode="B" horiz-adv-x="795" 
d="M355 620h241l-49 -85l-24 -43l-25 -43l-52 -91l-32 -56l-85 -148l-89 -154h-240zM240 0l89 154h131l-88 -154h-132zM372 0l88 154h120h1h120l-88 -154h-241zM753 245l-52 -91h-120h-1h-120l53 91h120h120zM630 449l-53 -91h-131l52 91h132zM630 449h240l-52 -91h-241z
M414 302l32 56h131l-32 -56h-66h-65zM728 620l-49 -85h-132l49 85h132zM654 492h-50h-81l24 43h132zM513 245l-34 57h66zM630 449l12 22l12 21h241l-25 -43h-240zM720 302h-175l32 56h241l-16 -28zM654 492l-12 -21l-12 -22l-26 43h50zM545 302h175l33 -57h-120h-120z
M728 620h92l25 -43l25 -42h-191zM679 535h191l25 -43h-241z" />
    <glyph glyph-name="C" unicode="C" horiz-adv-x="795" 
d="M669 91l-52 -91h-243l53 91h242zM327 147h132l-32 -56l-53 -91h-132zM412 295l-85 -148l-85 -147h-242l52 91l33 56l184 319h242zM269 466l89 154h242l-89 -154h-242zM643 466h-132l89 154h133zM702 147l-33 -56h-242l32 56h243zM459 147l33 57h243l-33 -57h-243z
M886 466h-243l90 154h107l68 -115zM611 409l32 57h243l-33 -57h-242zM908 505l-68 115h135z" />
    <glyph glyph-name="D" unicode="D" horiz-adv-x="777" 
d="M0 0l358 620h243h132h43l25 -43l26 -42l25 -43l25 -43l-52 -91l-17 -28l-16 -28l-33 -57l-52 -91l-22 -38l-128 -116h-61h-121h-132h-243zM417 302l-85 -148h132l43 74l10 17l32 57l33 56l53 91l-26 43h-82l-25 -43l-52 -91z" />
    <glyph glyph-name="E" unicode="E" 
d="M360 620h244l-50 -85l-25 -43l-25 -43l-52 -91l-33 -56l-86 -148l-89 -154h-244zM244 0l89 154h133l-90 -154h-132zM376 0l90 154h121h1h122l-90 -154h-244zM762 245l-52 -91h-122h-1h-121l53 91h122h121zM637 449l-53 -91h-132l52 91h133zM637 449h244l-53 -91h-244z
M419 302l33 56h132l-32 -56h-133zM552 302l32 56h244l-33 -56h-243zM736 620l-49 -85h-133l50 85h132zM980 620l-50 -85h-243l49 85h244zM662 492h-133l25 43h133zM930 535l-24 -43h-244l25 43h243z" />
    <glyph glyph-name="F" unicode="F" 
d="M360 620h244l-50 -85l-25 -43l-25 -43l-52 -91l-33 -56l-86 -148l-89 -154h-244zM637 449l-53 -91h-132l52 91h133zM637 449h244l-53 -91h-244zM419 302l33 56h132l-32 -56h-133zM552 302l32 56h244l-33 -56h-243zM736 620l-49 -85h-133l50 85h132zM980 620l-50 -85h-243
l49 85h244zM662 492h-133l25 43h133zM930 535l-24 -43h-244l25 43h243z" />
    <glyph glyph-name="G" unicode="G" horiz-adv-x="777" 
d="M358 620h243h132h43l25 -43l26 -42l25 -43l25 -43l-13 -23l-13 -22l-7 -12h-242l6 12l14 22l13 23l-26 43h-82l-25 -43l-52 -91l-33 -56l-85 -148h132l43 74l10 17l-34 57v28h226h17l33 -85l-52 -91l-22 -38l-23 -39l-44 -77h-61h-61h-121h-132h-243z" />
    <glyph glyph-name="H" unicode="H" 
d="M360 620h244l-50 -85l-25 -43l-25 -43h133l25 43l25 43l49 85h244l-50 -85l-24 -43l-25 -43l-53 -91l-33 -56l-33 -57l-52 -91l-90 -154h-244l90 154l53 91l33 57h-133l-86 -148l-89 -154h-244z" />
    <glyph glyph-name="I" unicode="I" horiz-adv-x="803" 
d="M377 0h-133l100 171h133zM563 318h-134l33 57l53 91h134zM739 620l-90 -154h-134l90 154h134zM344 171l53 91l32 56h134l-33 -56l-53 -91h-133zM377 0l100 171h61h61h122l-99 -171h-245zM0 0l99 171h122h62h61l-100 -171h-122h-122zM739 620h61l-90 -154h-61zM649 466h61
l-119 -204h-61l33 56zM477 171l53 91h61l-53 -91h-61zM344 171h-61l52 91h62zM429 318l-32 -56h-62l33 56h61zM429 318h-61l33 57h61zM515 466l-53 -91h-61l52 91h62zM515 466h-62l89 154h63zM771 466h-61l90 154h61zM893 466h-122l90 154h122zM542 620l-89 -154h-60l90 154
h59zM361 620h122l-90 -154h-122z" />
    <glyph glyph-name="J" unicode="J" horiz-adv-x="710" 
d="M890 620l-49 -85l-25 -43l-25 -43l-53 -91l-32 -56l-33 -57l-53 -91l-89 -154h-244h-133h-122l-32 154l53 91h243l-52 -91h132l53 91l33 57l33 56l53 91l24 43l25 43h-133l50 85h133h243z" />
    <glyph glyph-name="K" unicode="K" horiz-adv-x="811" 
d="M364 617h246l-50 -84l-25 -41l-25 -42l-53 -89l-34 -55l-86 -145l-91 -150h-246zM381 11l90 150h122h1h124l-91 -150h-246zM771 250l-53 -89h-124h-1h-122l54 89h123h123zM644 450l-53 -89h-134l53 89h134zM423 306l34 55h134l-33 -55h-67h-68zM525 250l-34 56h67z
M644 450l13 21l12 21h247l-25 -42h-247zM558 306h179l34 -56h-123h-123zM745 617h94l25 -42l26 -42h-195zM695 533h195l26 -41h-247zM591 361h112l34 -55h-179zM916 492l-26 41h51zM941 533h-51l-26 42l-25 42h50zM889 617h102l-50 -84zM644 450l59 -89h-112zM770 361h-67
l-59 89h247l-27 -45z" />
    <glyph glyph-name="L" unicode="L" horiz-adv-x="787" 
d="M699 91l-55 -91h-253l55 91h253zM342 147h138l-34 -56l-55 -91h-138zM431 295l-89 -148l-89 -147h-253l55 91l34 56l192 319h253zM281 466l93 154h253l-93 -154h-253zM733 147l-34 -56h-253l34 56h253zM480 147l34 57h253l-34 -57h-253z" />
    <glyph glyph-name="M" unicode="M" horiz-adv-x="1201" 
d="M492 620h135l-52 -91h-136zM542 473h-136l33 56h136zM917 473h-132l32 56l53 91h66h66zM1296 473h-136l33 56h135zM1328 529h-135l52 91h136zM785 473h-122l33 56h121zM817 529h-121l53 91h121zM627 620h122l-53 -91h-121zM406 473h-132l32 56l53 91h66h67zM222 155
l-45 -78zM177 77l45 78zM931 77h136l-45 -77h-135zM765 0l45 77h121l-44 -77h-122zM644 0h-133l45 77h132zM390 0l45 77h121l-45 -77h-121zM133 0l44 77h136l-44 -77h-136zM133 0h-133l45 77h132zM509 416h-135l32 57h136zM222 155l76 131l76 130h135l-75 -130l-76 -131
h-136zM358 155l-45 -78h-136l45 78h136zM222 155l-45 -78h-132l45 78h132zM222 155h-132l75 131l24 39h132l-23 -39zM374 416l-53 -91h-132l52 91l33 57h132zM601 155l-45 -78h-121l44 78h63h59zM542 155h-63l76 131h121l-75 -131h-59zM699 325l-23 -39h-121l76 130h121z
M752 416h-121l32 57h122zM699 325l53 91l33 57h132l-33 -57l-52 -91h-133zM733 155l-45 -78h-132l45 78h132zM832 325l-23 -39l-76 -131h-132l75 131l23 39h133zM976 155l-45 -78h-121l44 78h122zM976 155h-122l76 131h122zM1052 286h-122l109 187h121l-33 -57zM1112 155
h-27l75 318h136l-33 -57zM1052 286l75 130l33 57l-75 -318h-109zM931 77l45 78h109l-18 -78h-136zM1067 77l18 78h27zM1002 620h122l-85 -147h-31h-30h-30h-31zM1193 529l-33 -56h-121l85 147h121zM575 529h121l-33 -56h-30h-30h-31h-30zM832 325l52 91l33 57h31l-274 -473
h-30l44 77l45 78l76 131zM854 155l-44 -78l-45 -77h-30l273 473h31zM542 473h30l-273 -473h-30l44 77l45 78h-136h136l76 131l75 130zM631 416l-152 -261l-44 -78l-45 -77h-30l273 473h30z" />
    <glyph glyph-name="N" unicode="N" horiz-adv-x="819" 
d="M384 11l91 152h248l-91 -152h-248zM475 163l-74 103l-135 188h248l74 -103l31 -43l40 -55l64 -90h-248zM0 11l91 152h248l-91 -152h-248zM615 622l-84 -139l-17 -29h-248l101 168h248zM91 163l175 291l135 -188l-15 -26l-47 -77h-248zM723 163l-64 90h118zM811 308h-192
l-31 43l8 13h248zM777 253h-118l-40 55h192zM649 454h249l-54 -90h-248l13 22l14 23zM999 622l-101 -168h-249l102 168h248zM555 454l54 -68l-13 -22l-8 -13l-74 103h41zM555 454h-41l17 29zM386 240l15 26l74 -103l-15 -26z" />
    <glyph glyph-name="O" unicode="O" horiz-adv-x="801" 
d="M360 620h244h133h244l-152 -262l-33 -56l-33 -57l-53 -91l-89 -154h-244h-133h-244l90 154zM505 449l-86 -147l-85 -148h133l52 91l33 57l33 56l53 91h-133z" />
    <glyph glyph-name="P" unicode="P" horiz-adv-x="804" 
d="M606 620h134h244l-152 -262l-33 -56l-33 -57l-53 -91h-136h-109h-133l-90 -154h-245l90 154l272 466h244zM640 449h-133l-86 -147h133l33 56z" />
    <glyph glyph-name="Q" unicode="Q" horiz-adv-x="819" 
d="M0 1l152 261l32 57l33 56l53 91l89 154h244h132h244l-90 -154l-53 -91l-32 -56l-185 -318h136l-45 -77l-22 -39h-136h-243l22 39l45 77h-133h-243zM342 171h133l85 148l86 147h-133l-53 -91l-32 -56l-33 -57z" />
    <glyph glyph-name="R" unicode="R" horiz-adv-x="739" 
d="M357 620h242l-49 -85l-25 -43l-24 -43l-53 -91l-32 -56l-85 -148l-89 -154h-242zM374 0l89 154h119h2h121l-89 -154h-242zM757 245l-52 -91h-121h-2h-119l52 91h121h121zM633 449l-53 -91h-132l53 91h132zM633 449h241l-52 -91h-242zM416 302l32 56h132l-32 -56h-66h-66z
M731 620l-49 -85h-132l49 85h132zM657 492h-50h-82l25 43h132zM515 245l-33 57h66zM633 449l12 22l12 21h242l-25 -43h-241zM724 302h-176l32 56h242l-16 -28zM657 492l-12 -21l-12 -22l-26 43h50zM548 302h176l33 -57h-121h-121zM731 620h92l25 -43l26 -42h-192zM682 535
h192l25 -43h-242z" />
    <glyph glyph-name="S" unicode="S" horiz-adv-x="801" 
d="M377 0l90 154h243l-89 -154h-244zM244 0l90 154h133l-90 -154h-133zM0 0l90 154h244l-90 -154h-244zM604 620l-99 -171h-244l99 171h244zM604 620h133l-99 -171h-133zM981 620l-99 -171h-244l99 171h244zM467 154l-73 104l-133 191h244l72 -104l31 -43l39 -57l63 -91
h-243z" />
    <glyph glyph-name="T" unicode="T" horiz-adv-x="761" 
d="M564 620h133l-99 -171h-134zM378 302h133l-33 -57l-53 -91h-134zM201 0l90 154h134l-90 -154h-134zM598 449l-54 -91l-33 -56h-133l33 56l53 91h134zM564 620l-100 -171h-62h-61h-122l99 171h246zM943 620l-100 -171h-123h-61h-61l99 171h123h123zM201 0h-61l90 154h61z
M291 154h-61l119 204h62l-33 -56zM464 449l-53 -91h-62l53 91h62zM598 449h61l-53 -91h-62zM511 302l33 56h62l-33 -56h-62zM511 302h62l-33 -57h-62zM425 154l53 91h62l-52 -91h-63zM425 154h63l-90 -154h-63z" />
    <glyph glyph-name="U" unicode="U" horiz-adv-x="801" 
d="M604 620l-99 -171l-86 -147l-85 -148h-244l270 466h244zM981 620l-152 -262h-244l53 91l99 171h244zM552 302l33 56h244l-33 -56h-244zM552 302h244l-33 -57h-244zM467 154l52 91h244l-53 -91h-243zM377 0l90 154h243l-89 -154h-244zM604 620l-99 -171l-86 -147l-85 -148
h-244l270 466h244zM0 0l90 154h244l-90 -154h-244zM244 0l90 154h133l-90 -154h-133z" />
    <glyph glyph-name="V" unicode="V" horiz-adv-x="785" 
d="M965 620l-152 -262h-244l53 91l99 171h244zM536 302l33 56h244l-33 -56h-244zM536 302h244l-33 -57h-244zM228 0l90 154h33h33h33h34l-90 -154h-133zM106 0l-5 154h217l-90 -154h-122zM127 245l217 375h244l-99 -171l-86 -147l-33 -57l-52 -91h-217l-1 46zM483 0h-122
l90 154h216zM667 154h-216l52 91h244l-26 -45zM436 302l-85 -148h-33l52 91l33 57h33zM522 449l-86 -147h-33l86 147h33zM588 620h33l-99 -171h-33zM622 449h-33l99 171h33zM536 302h-33l86 147h33l-53 -91zM503 245l-52 -91h-34l86 148h33z" />
    <glyph glyph-name="W" unicode="W" horiz-adv-x="1200" 
d="M889 1h-136l53 91h136zM838 148h136l-32 -56h-136zM463 148h133l-33 -56l-53 -91h-66h-66zM85 148h135l-32 -56h-136zM52 92h136l-53 -91h-119h-17zM596 148h121l-33 -56h-121zM563 92h121l-52 -91h-122zM753 1h-121l52 91h122zM974 148h133l-33 -56l-53 -91h-66h-66z
M1158 466l45 78zM1203 544l-45 -78zM449 544h-136l45 77h136zM615 621l-44 -77h-122l45 77h121zM737 621h132l-45 -77h-132zM990 621l-44 -77h-122l45 77h121zM1248 621l-45 -77h-136l45 77h136zM1248 621h132l-45 -77h-132zM871 205h136l-33 -57h-136zM1158 466l-75 -131
l-76 -130h-136l76 130l76 131h135zM1023 466l44 78h136l-45 -78h-135zM1158 466l45 78h132l-44 -78h-133zM1158 466h133l-76 -131l-23 -39h-133l24 39zM1007 205l52 91h133l-53 -91l-32 -57h-133zM780 466l44 78h122l-45 -78h-63h-58zM838 466h63l-76 -131h-121l76 131h58z
M681 296l23 39h121l-75 -130h-122zM628 205h122l-33 -57h-121zM681 296l-53 -91l-32 -57h-133l33 57l53 91h132zM647 466l45 78h132l-44 -78h-133zM549 296l23 39l75 131h133l-76 -131l-23 -39h-132zM405 466l44 78h122l-45 -78h-121zM405 466h121l-76 -131h-121zM329 335
h121l-108 -187h-122l33 57zM269 466h26l-75 -318h-135l32 57zM329 335l-76 -130l-33 -57l75 318h110zM449 544l-44 -78h-110l18 78h136zM313 544l-18 -78h-26zM378 1h-121l85 147h30h31h30h30zM188 92l32 56h122l-85 -147h-122zM806 92h-122l33 56h30h31h30h30zM549 296
l-53 -91l-33 -57h-30l273 473h31l-45 -77l-45 -78l-75 -131zM526 466l45 78l44 77h31l-37 -64l-237 -409h-30zM838 148h-30l273 473h31l-45 -77l-44 -78h135h-135l-76 -131l-76 -130zM750 205l151 261l45 78l44 77h31l-274 -473h-30z" />
    <glyph glyph-name="X" unicode="X" horiz-adv-x="802" 
d="M621 0h-244l90 154l-28 41l1 1h1l1 1h1l1 1l1 1h1l1 1h1l1 1h1l1 1l1 1h1l1 1h1l1 1h1l1 1l1 1h1l1 1h1l1 1h1l1 1l1 1h1l1 1h1l1 1h1l1 1l1 1h1l1 1h1l1 1h1l1 1l1 1h1l1 1h1l1 1h1l1 1l1 1h1l1 1h1l1 1h1l1 1l1 1h1l1 1h1l1 1h1l1 1l1 1h1l1 1h1l1 1h1l1 1l1 1h1l1 1h1
l1 1h1l1 1l1 1h1l1 1h1l1 1h1l1 1l1 1h1l1 1h1l1 1l1 1h1l1 1h1l1 1h1l1 1l1 1h1l1 1h1l1 1h1l1 1l1 1h1l1 1h1l1 1h1l1 1l1 1h1l1 1h1l1 1h1l1 1l1 1h1l1 1h1l1 1h1l1 1l1 1h1l1 1h1l1 1h1l1 1l1 1h1l1 1h1l1 1h1l1 1l1 1h1l1 1h1l1 1h1l1 1l1 1h1l1 1h1l1 1h1l1 1l1 1h1
l1 1h1l1 1h1l1 1l1 1h1l1 1h1l1 1l1 1h1l1 1h1l1 1h1l1 1l1 1h1l1 1h1l1 1l35 -50l31 -45l32 -46zM360 308l-4 5l178 96l1 -2l43 -62l35 -50l-1 -1h-1l-1 -1h-1l-1 -1l-1 -1h-1l-1 -1h-1l-1 -1h-1l-1 -1l-1 -1h-1l-1 -1h-1l-1 -1h-1l-1 -1l-1 -1h-1l-1 -1h-1l-1 -1h-1l-1 -1
l-1 -1h-1l-1 -1h-1l-1 -1h-1l-1 -1l-1 -1h-1l-1 -1h-1l-1 -1h-1l-1 -1l-1 -1h-1l-1 -1h-1l-1 -1h-1l-1 -1l-1 -1h-1l-1 -1h-1l-1 -1h-1l-1 -1l-1 -1h-1l-1 -1h-1l-1 -1h-1l-1 -1l-1 -1h-1l-1 -1h-1l-1 -1h-1l-1 -1l-1 -1h-1l-1 -1h-1l-1 -1h-1l-1 -1l-1 -1h-1l-1 -1h-1
l-1 -1h-1l-1 -1l-1 -1h-1l-1 -1h-1l-1 -1l-1 -1h-1l-1 -1h-1l-1 -1h-1l-1 -1l-1 -1h-1l-1 -1h-1l-1 -1h-1l-1 -1l-1 -1h-1l-1 -1h-1l-1 -1h-1l-1 -1l-1 -1h-1l-1 -1h-1l-1 -1h-1l-1 -1l-1 -1h-1l-1 -1h-1l-1 -1h-1l-1 -1l-1 -1h-1l-1 -1h-1l-1 -1h-1l-1 -1l-1 -1h-1l-1 -1
h-1l-1 -1h-1l-1 -1l-1 -1h-1l-1 -1h-1l-1 -1h-1l-1 -1l-1 -1h-1l-1 -1h-1l-1 -1h-1l-1 -1l-1 -1h-1l-1 -1h-1l-1 -1h-1l-1 -1l-1 -1h-1l-1 -1h-1l-1 -1h-1l-1 -1l-1 -1h-1l-1 -1h-1l-1 -1h-1l-1 -1l-1 -1h-1l-1 -1l-45 63zM90 154l13 23l253 136l4 -5l34 -50l45 -63l-36 -20
l-36 -21l-90 -154h-33h-244zM982 620l-99 -171l-159 -91l-111 -63l-35 50l-43 62l-1 2l74 40l97 171h33h244zM605 620l-100 -171l29 -40l-178 -96l-95 136l100 171h244z" />
    <glyph glyph-name="Y" unicode="Y" horiz-adv-x="743" 
d="M372 299l32 56h131l-33 -56h-65h-65zM587 445l12 21l12 22h239l-24 -43h-239zM684 615h91l25 -43l25 -42h-190zM635 530h190l25 -42h-239zM850 488l-25 42h49zM874 530h-49l-25 42l-25 43h49zM824 615h99l-49 -85zM587 445l56 -90h-54h-54l26 45zM709 355h-66l-56 90h239
l-26 -45zM314 615h239l-48 -85l-25 -42l-24 -43l-26 -45l-26 -45h-67h-66l-54 90zM372 299h65h65l-32 -56l-10 -17l-42 -73h-130zM200 0l88 153h130l-87 -153h-131zM418 153h61l-83 -153h-65zM460 226l10 17h58l-49 -90h-61zM502 299h57l-14 -25l-17 -31h-58zM200 0h-60
l99 178l63 112l35 65h67l-32 -56l-84 -146zM502 299l33 56h54l-30 -56h-57zM337 355l-35 -65l-31 65h66zM559 299h36l-50 -25zM658 330l-41 -20l-22 -11h-36l30 56h54zM709 355l-51 -25l-15 25h66zM561 400l-26 -45h-131l26 45h33h32h33h33zM635 530h-32l48 85h33zM611 488
h-33l25 42h32zM587 445l-17 28l8 15h33l-12 -22zM554 445l16 28l17 -28h-33zM561 400h-33l26 45h33zM456 445h33l-26 -45h-33zM480 488h33l-24 -43h-33zM505 530h32l-24 -42h-33zM553 615h33l-49 -85h-32z" />
    <glyph glyph-name="Z" unicode="Z" horiz-adv-x="802" 
d="M982 620l-90 -154h-244l90 154h244zM738 620l-90 -154h-66h-67l90 154h133zM0 0l99 171h244l-99 -171h-244zM377 0h-133l99 171h67h67zM377 0l100 171h244l-100 -171h-244zM605 620l-90 -154h-244l90 154h244zM99 171l149 91l92 56l93 57l45 28l104 63h66h244l-379 -232
l-103 -63h-67h-244z" />
    <glyph glyph-name="bracketleft" unicode="[" horiz-adv-x="458" 
d="M380 318h-133l33 57l53 91h133zM556 620l-90 -154h-133l89 154h134zM556 620h61l-90 -154h-61zM247 318l-33 -56h-62l33 56h62zM247 318h-62l33 57h62zM333 466l-53 -91h-62l52 91h63zM333 466h-63l90 154h62zM214 262l33 56h133l-33 -56h-133zM61 0h-61l50 85l25 43h61z
M269 128l-74 -128h-134l75 128h133zM330 128l-24 -43l-50 -85h-61l74 128h61zM214 262h133l-26 -46h-134zM214 262l-27 -46h-61l26 46h62zM100 171l26 45h61l-26 -45h-61zM161 171l26 45h134l-27 -45h-133zM416 171l-99 -171h-61l50 85l24 43l25 43h61zM355 171l-25 -43h-61
l25 43h61zM294 171l-25 -43h-133l25 43h133zM161 171l-25 -43h-61l25 43h61zM678 620l-90 -154h-61l90 154h61z" />
    <glyph glyph-name="backslash" unicode="\" horiz-adv-x="915" 
d="M370 464l-70 156h160zM438 310l-68 154l90 156h79l35 -77zM507 155l-69 155l136 233l68 -155zM643 388l68 -155l-45 -79l-90 -154l-69 155zM666 154l45 79l104 -233h-239z" />
    <glyph glyph-name="bracketright" unicode="]" horiz-adv-x="458" 
d="M298 302h134l-33 -57l-53 -91h-134zM122 0l90 154h134l-90 -154h-134zM122 0h-61l90 154h61zM432 302l32 56h62l-33 -56h-61zM432 302h61l-33 -57h-61zM346 154l53 91h61l-52 -91h-62zM346 154h62l-89 -154h-63zM464 358l-32 -56h-134l33 56h133zM617 620h61l-50 -85
l-25 -43h-61zM409 492l75 128h133l-75 -128h-133zM348 492l25 43l49 85h62l-75 -128h-61zM464 358h-133l27 46h133zM464 358l27 46h61l-26 -46h-62zM578 449l-26 -45h-61l26 45h61zM517 449l-26 -45h-133l26 45h133zM262 449l99 171h61l-49 -85l-25 -43l-25 -43h-61z
M323 449l25 43h61l-25 -43h-61zM384 449l25 43h133l-25 -43h-133zM517 449l25 43h61l-25 -43h-61zM0 0l90 154h61l-90 -154h-61z" />
    <glyph glyph-name="a" unicode="a" horiz-adv-x="792" 
d="M357 620h241h132h242l-151 -262l-33 -56l-32 -57l-52 -91l-89 -154h-242l89 154h-132l-88 -154h-242l89 154zM632 449h-132l-85 -147h132l32 56z" />
    <glyph glyph-name="b" unicode="b" horiz-adv-x="795" 
d="M355 620h241l-49 -85l-24 -43l-25 -43l-52 -91l-32 -56l-85 -148l-89 -154h-240zM240 0l89 154h131l-88 -154h-132zM372 0l88 154h120h1h120l-88 -154h-241zM753 245l-52 -91h-120h-1h-120l53 91h120h120zM630 449l-53 -91h-131l52 91h132zM630 449h240l-52 -91h-241z
M414 302l32 56h131l-32 -56h-66h-65zM728 620l-49 -85h-132l49 85h132zM654 492h-50h-81l24 43h132zM513 245l-34 57h66zM630 449l12 22l12 21h241l-25 -43h-240zM720 302h-175l32 56h241l-16 -28zM654 492l-12 -21l-12 -22l-26 43h50zM545 302h175l33 -57h-120h-120z
M728 620h92l25 -43l25 -42h-191zM679 535h191l25 -43h-241z" />
    <glyph glyph-name="c" unicode="c" horiz-adv-x="795" 
d="M669 91l-52 -91h-243l53 91h242zM327 147h132l-32 -56l-53 -91h-132zM412 295l-85 -148l-85 -147h-242l52 91l33 56l184 319h242zM269 466l89 154h242l-89 -154h-242zM643 466h-132l89 154h133zM702 147l-33 -56h-242l32 56h243zM459 147l33 57h243l-33 -57h-243z
M886 466h-243l90 154h107l68 -115zM611 409l32 57h243l-33 -57h-242zM908 505l-68 115h135z" />
    <glyph glyph-name="d" unicode="d" horiz-adv-x="777" 
d="M0 0l358 620h243h132h43l25 -43l26 -42l25 -43l25 -43l-52 -91l-17 -28l-16 -28l-33 -57l-52 -91l-22 -38l-128 -116h-61h-121h-132h-243zM417 302l-85 -148h132l43 74l10 17l32 57l33 56l53 91l-26 43h-82l-25 -43l-52 -91z" />
    <glyph glyph-name="e" unicode="e" 
d="M360 620h244l-50 -85l-25 -43l-25 -43l-52 -91l-33 -56l-86 -148l-89 -154h-244zM244 0l89 154h133l-90 -154h-132zM376 0l90 154h121h1h122l-90 -154h-244zM762 245l-52 -91h-122h-1h-121l53 91h122h121zM637 449l-53 -91h-132l52 91h133zM637 449h244l-53 -91h-244z
M419 302l33 56h132l-32 -56h-133zM552 302l32 56h244l-33 -56h-243zM736 620l-49 -85h-133l50 85h132zM980 620l-50 -85h-243l49 85h244zM662 492h-133l25 43h133zM930 535l-24 -43h-244l25 43h243z" />
    <glyph glyph-name="f" unicode="f" 
d="M360 620h244l-50 -85l-25 -43l-25 -43l-52 -91l-33 -56l-86 -148l-89 -154h-244zM637 449l-53 -91h-132l52 91h133zM637 449h244l-53 -91h-244zM419 302l33 56h132l-32 -56h-133zM552 302l32 56h244l-33 -56h-243zM736 620l-49 -85h-133l50 85h132zM980 620l-50 -85h-243
l49 85h244zM662 492h-133l25 43h133zM930 535l-24 -43h-244l25 43h243z" />
    <glyph glyph-name="g" unicode="g" horiz-adv-x="777" 
d="M358 620h243h132h43l25 -43l26 -42l25 -43l25 -43l-13 -23l-13 -22l-7 -12h-242l6 12l14 22l13 23l-26 43h-82l-25 -43l-52 -91l-33 -56l-85 -148h132l43 74l10 17l-34 57v28h226h17l33 -85l-52 -91l-22 -38l-23 -39l-44 -77h-61h-61h-121h-132h-243z" />
    <glyph glyph-name="h" unicode="h" 
d="M360 620h244l-50 -85l-25 -43l-25 -43h133l25 43l25 43l49 85h244l-50 -85l-24 -43l-25 -43l-53 -91l-33 -56l-33 -57l-52 -91l-90 -154h-244l90 154l53 91l33 57h-133l-86 -148l-89 -154h-244z" />
    <glyph glyph-name="i" unicode="i" horiz-adv-x="803" 
d="M377 0h-133l100 171h133zM563 318h-134l33 57l53 91h134zM739 620l-90 -154h-134l90 154h134zM344 171l53 91l32 56h134l-33 -56l-53 -91h-133zM377 0l100 171h61h61h122l-99 -171h-245zM0 0l99 171h122h62h61l-100 -171h-122h-122zM739 620h61l-90 -154h-61zM649 466h61
l-119 -204h-61l33 56zM477 171l53 91h61l-53 -91h-61zM344 171h-61l52 91h62zM429 318l-32 -56h-62l33 56h61zM429 318h-61l33 57h61zM515 466l-53 -91h-61l52 91h62zM515 466h-62l89 154h63zM771 466h-61l90 154h61zM893 466h-122l90 154h122zM542 620l-89 -154h-60l90 154
h59zM361 620h122l-90 -154h-122z" />
    <glyph glyph-name="j" unicode="j" horiz-adv-x="710" 
d="M890 620l-49 -85l-25 -43l-25 -43l-53 -91l-32 -56l-33 -57l-53 -91l-89 -154h-244h-133h-122l-32 154l53 91h243l-52 -91h132l53 91l33 57l33 56l53 91l24 43l25 43h-133l50 85h133h243z" />
    <glyph glyph-name="k" unicode="k" horiz-adv-x="811" 
d="M364 617h246l-50 -84l-25 -41l-25 -42l-53 -89l-34 -55l-86 -145l-91 -150h-246zM381 11l90 150h122h1h124l-91 -150h-246zM771 250l-53 -89h-124h-1h-122l54 89h123h123zM644 450l-53 -89h-134l53 89h134zM423 306l34 55h134l-33 -55h-67h-68zM525 250l-34 56h67z
M644 450l13 21l12 21h247l-25 -42h-247zM558 306h179l34 -56h-123h-123zM745 617h94l25 -42l26 -42h-195zM695 533h195l26 -41h-247zM591 361h112l34 -55h-179zM916 492l-26 41h51zM941 533h-51l-26 42l-25 42h50zM889 617h102l-50 -84zM644 450l59 -89h-112zM770 361h-67
l-59 89h247l-27 -45z" />
    <glyph glyph-name="l" unicode="l" horiz-adv-x="787" 
d="M699 91l-55 -91h-253l55 91h253zM342 147h138l-34 -56l-55 -91h-138zM431 295l-89 -148l-89 -147h-253l55 91l34 56l192 319h253zM281 466l93 154h253l-93 -154h-253zM733 147l-34 -56h-253l34 56h253zM480 147l34 57h253l-34 -57h-253z" />
    <glyph glyph-name="m" unicode="m" horiz-adv-x="1201" 
d="M492 620h135l-52 -91h-136zM542 473h-136l33 56h136zM917 473h-132l32 56l53 91h66h66zM1296 473h-136l33 56h135zM1328 529h-135l52 91h136zM785 473h-122l33 56h121zM817 529h-121l53 91h121zM627 620h122l-53 -91h-121zM406 473h-132l32 56l53 91h66h67zM222 155
l-45 -78zM177 77l45 78zM931 77h136l-45 -77h-135zM765 0l45 77h121l-44 -77h-122zM644 0h-133l45 77h132zM390 0l45 77h121l-45 -77h-121zM133 0l44 77h136l-44 -77h-136zM133 0h-133l45 77h132zM509 416h-135l32 57h136zM222 155l76 131l76 130h135l-75 -130l-76 -131
h-136zM358 155l-45 -78h-136l45 78h136zM222 155l-45 -78h-132l45 78h132zM222 155h-132l75 131l24 39h132l-23 -39zM374 416l-53 -91h-132l52 91l33 57h132zM601 155l-45 -78h-121l44 78h63h59zM542 155h-63l76 131h121l-75 -131h-59zM699 325l-23 -39h-121l76 130h121z
M752 416h-121l32 57h122zM699 325l53 91l33 57h132l-33 -57l-52 -91h-133zM733 155l-45 -78h-132l45 78h132zM832 325l-23 -39l-76 -131h-132l75 131l23 39h133zM976 155l-45 -78h-121l44 78h122zM976 155h-122l76 131h122zM1052 286h-122l109 187h121l-33 -57zM1112 155
h-27l75 318h136l-33 -57zM1052 286l75 130l33 57l-75 -318h-109zM931 77l45 78h109l-18 -78h-136zM1067 77l18 78h27zM1002 620h122l-85 -147h-31h-30h-30h-31zM1193 529l-33 -56h-121l85 147h121zM575 529h121l-33 -56h-30h-30h-31h-30zM832 325l52 91l33 57h31l-274 -473
h-30l44 77l45 78l76 131zM854 155l-44 -78l-45 -77h-30l273 473h31zM542 473h30l-273 -473h-30l44 77l45 78h-136h136l76 131l75 130zM631 416l-152 -261l-44 -78l-45 -77h-30l273 473h30z" />
    <glyph glyph-name="n" unicode="n" horiz-adv-x="819" 
d="M384 11l91 152h248l-91 -152h-248zM475 163l-74 103l-135 188h248l74 -103l31 -43l40 -55l64 -90h-248zM0 11l91 152h248l-91 -152h-248zM615 622l-84 -139l-17 -29h-248l101 168h248zM91 163l175 291l135 -188l-15 -26l-47 -77h-248zM723 163l-64 90h118zM811 308h-192
l-31 43l8 13h248zM777 253h-118l-40 55h192zM649 454h249l-54 -90h-248l13 22l14 23zM999 622l-101 -168h-249l102 168h248zM555 454l54 -68l-13 -22l-8 -13l-74 103h41zM555 454h-41l17 29zM386 240l15 26l74 -103l-15 -26z" />
    <glyph glyph-name="o" unicode="o" horiz-adv-x="801" 
d="M360 620h244h133h244l-152 -262l-33 -56l-33 -57l-53 -91l-89 -154h-244h-133h-244l90 154zM505 449l-86 -147l-85 -148h133l52 91l33 57l33 56l53 91h-133z" />
    <glyph glyph-name="p" unicode="p" horiz-adv-x="804" 
d="M606 620h134h244l-152 -262l-33 -56l-33 -57l-53 -91h-136h-109h-133l-90 -154h-245l90 154l272 466h244zM640 449h-133l-86 -147h133l33 56z" />
    <glyph glyph-name="q" unicode="q" horiz-adv-x="819" 
d="M0 1l152 261l32 57l33 56l53 91l89 154h244h132h244l-90 -154l-53 -91l-32 -56l-185 -318h136l-45 -77l-22 -39h-136h-243l22 39l45 77h-133h-243zM342 171h133l85 148l86 147h-133l-53 -91l-32 -56l-33 -57z" />
    <glyph glyph-name="r" unicode="r" horiz-adv-x="739" 
d="M357 620h242l-49 -85l-25 -43l-24 -43l-53 -91l-32 -56l-85 -148l-89 -154h-242zM374 0l89 154h119h2h121l-89 -154h-242zM757 245l-52 -91h-121h-2h-119l52 91h121h121zM633 449l-53 -91h-132l53 91h132zM633 449h241l-52 -91h-242zM416 302l32 56h132l-32 -56h-66h-66z
M731 620l-49 -85h-132l49 85h132zM657 492h-50h-82l25 43h132zM515 245l-33 57h66zM633 449l12 22l12 21h242l-25 -43h-241zM724 302h-176l32 56h242l-16 -28zM657 492l-12 -21l-12 -22l-26 43h50zM548 302h176l33 -57h-121h-121zM731 620h92l25 -43l26 -42h-192zM682 535
h192l25 -43h-242z" />
    <glyph glyph-name="s" unicode="s" horiz-adv-x="801" 
d="M377 0l90 154h243l-89 -154h-244zM244 0l90 154h133l-90 -154h-133zM0 0l90 154h244l-90 -154h-244zM604 620l-99 -171h-244l99 171h244zM604 620h133l-99 -171h-133zM981 620l-99 -171h-244l99 171h244zM467 154l-73 104l-133 191h244l72 -104l31 -43l39 -57l63 -91
h-243z" />
    <glyph glyph-name="t" unicode="t" horiz-adv-x="761" 
d="M564 620h133l-99 -171h-134zM378 302h133l-33 -57l-53 -91h-134zM201 0l90 154h134l-90 -154h-134zM598 449l-54 -91l-33 -56h-133l33 56l53 91h134zM564 620l-100 -171h-62h-61h-122l99 171h246zM943 620l-100 -171h-123h-61h-61l99 171h123h123zM201 0h-61l90 154h61z
M291 154h-61l119 204h62l-33 -56zM464 449l-53 -91h-62l53 91h62zM598 449h61l-53 -91h-62zM511 302l33 56h62l-33 -56h-62zM511 302h62l-33 -57h-62zM425 154l53 91h62l-52 -91h-63zM425 154h63l-90 -154h-63z" />
    <glyph glyph-name="u" unicode="u" horiz-adv-x="801" 
d="M604 620l-99 -171l-86 -147l-85 -148h-244l270 466h244zM981 620l-152 -262h-244l53 91l99 171h244zM552 302l33 56h244l-33 -56h-244zM552 302h244l-33 -57h-244zM467 154l52 91h244l-53 -91h-243zM377 0l90 154h243l-89 -154h-244zM604 620l-99 -171l-86 -147l-85 -148
h-244l270 466h244zM0 0l90 154h244l-90 -154h-244zM244 0l90 154h133l-90 -154h-133z" />
    <glyph glyph-name="v" unicode="v" horiz-adv-x="785" 
d="M965 620l-152 -262h-244l53 91l99 171h244zM536 302l33 56h244l-33 -56h-244zM536 302h244l-33 -57h-244zM228 0l90 154h33h33h33h34l-90 -154h-133zM106 0l-5 154h217l-90 -154h-122zM127 245l217 375h244l-99 -171l-86 -147l-33 -57l-52 -91h-217l-1 46zM483 0h-122
l90 154h216zM667 154h-216l52 91h244l-26 -45zM436 302l-85 -148h-33l52 91l33 57h33zM522 449l-86 -147h-33l86 147h33zM588 620h33l-99 -171h-33zM622 449h-33l99 171h33zM536 302h-33l86 147h33l-53 -91zM503 245l-52 -91h-34l86 148h33z" />
    <glyph glyph-name="w" unicode="w" horiz-adv-x="1200" 
d="M889 1h-136l53 91h136zM838 148h136l-32 -56h-136zM463 148h133l-33 -56l-53 -91h-66h-66zM85 148h135l-32 -56h-136zM52 92h136l-53 -91h-119h-17zM596 148h121l-33 -56h-121zM563 92h121l-52 -91h-122zM753 1h-121l52 91h122zM974 148h133l-33 -56l-53 -91h-66h-66z
M1158 466l45 78zM1203 544l-45 -78zM449 544h-136l45 77h136zM615 621l-44 -77h-122l45 77h121zM737 621h132l-45 -77h-132zM990 621l-44 -77h-122l45 77h121zM1248 621l-45 -77h-136l45 77h136zM1248 621h132l-45 -77h-132zM871 205h136l-33 -57h-136zM1158 466l-75 -131
l-76 -130h-136l76 130l76 131h135zM1023 466l44 78h136l-45 -78h-135zM1158 466l45 78h132l-44 -78h-133zM1158 466h133l-76 -131l-23 -39h-133l24 39zM1007 205l52 91h133l-53 -91l-32 -57h-133zM780 466l44 78h122l-45 -78h-63h-58zM838 466h63l-76 -131h-121l76 131h58z
M681 296l23 39h121l-75 -130h-122zM628 205h122l-33 -57h-121zM681 296l-53 -91l-32 -57h-133l33 57l53 91h132zM647 466l45 78h132l-44 -78h-133zM549 296l23 39l75 131h133l-76 -131l-23 -39h-132zM405 466l44 78h122l-45 -78h-121zM405 466h121l-76 -131h-121zM329 335
h121l-108 -187h-122l33 57zM269 466h26l-75 -318h-135l32 57zM329 335l-76 -130l-33 -57l75 318h110zM449 544l-44 -78h-110l18 78h136zM313 544l-18 -78h-26zM378 1h-121l85 147h30h31h30h30zM188 92l32 56h122l-85 -147h-122zM806 92h-122l33 56h30h31h30h30zM549 296
l-53 -91l-33 -57h-30l273 473h31l-45 -77l-45 -78l-75 -131zM526 466l45 78l44 77h31l-37 -64l-237 -409h-30zM838 148h-30l273 473h31l-45 -77l-44 -78h135h-135l-76 -131l-76 -130zM750 205l151 261l45 78l44 77h31l-274 -473h-30z" />
    <glyph glyph-name="x" unicode="x" horiz-adv-x="802" 
d="M621 0h-244l90 154l-28 41l1 1h1l1 1h1l1 1l1 1h1l1 1h1l1 1h1l1 1l1 1h1l1 1h1l1 1h1l1 1l1 1h1l1 1h1l1 1h1l1 1l1 1h1l1 1h1l1 1h1l1 1l1 1h1l1 1h1l1 1h1l1 1l1 1h1l1 1h1l1 1h1l1 1l1 1h1l1 1h1l1 1h1l1 1l1 1h1l1 1h1l1 1h1l1 1l1 1h1l1 1h1l1 1h1l1 1l1 1h1l1 1h1
l1 1h1l1 1l1 1h1l1 1h1l1 1h1l1 1l1 1h1l1 1h1l1 1l1 1h1l1 1h1l1 1h1l1 1l1 1h1l1 1h1l1 1h1l1 1l1 1h1l1 1h1l1 1h1l1 1l1 1h1l1 1h1l1 1h1l1 1l1 1h1l1 1h1l1 1h1l1 1l1 1h1l1 1h1l1 1h1l1 1l1 1h1l1 1h1l1 1h1l1 1l1 1h1l1 1h1l1 1h1l1 1l1 1h1l1 1h1l1 1h1l1 1l1 1h1
l1 1h1l1 1h1l1 1l1 1h1l1 1h1l1 1l1 1h1l1 1h1l1 1h1l1 1l1 1h1l1 1h1l1 1l35 -50l31 -45l32 -46zM360 308l-4 5l178 96l1 -2l43 -62l35 -50l-1 -1h-1l-1 -1h-1l-1 -1l-1 -1h-1l-1 -1h-1l-1 -1h-1l-1 -1l-1 -1h-1l-1 -1h-1l-1 -1h-1l-1 -1l-1 -1h-1l-1 -1h-1l-1 -1h-1l-1 -1
l-1 -1h-1l-1 -1h-1l-1 -1h-1l-1 -1l-1 -1h-1l-1 -1h-1l-1 -1h-1l-1 -1l-1 -1h-1l-1 -1h-1l-1 -1h-1l-1 -1l-1 -1h-1l-1 -1h-1l-1 -1h-1l-1 -1l-1 -1h-1l-1 -1h-1l-1 -1h-1l-1 -1l-1 -1h-1l-1 -1h-1l-1 -1h-1l-1 -1l-1 -1h-1l-1 -1h-1l-1 -1h-1l-1 -1l-1 -1h-1l-1 -1h-1
l-1 -1h-1l-1 -1l-1 -1h-1l-1 -1h-1l-1 -1l-1 -1h-1l-1 -1h-1l-1 -1h-1l-1 -1l-1 -1h-1l-1 -1h-1l-1 -1h-1l-1 -1l-1 -1h-1l-1 -1h-1l-1 -1h-1l-1 -1l-1 -1h-1l-1 -1h-1l-1 -1h-1l-1 -1l-1 -1h-1l-1 -1h-1l-1 -1h-1l-1 -1l-1 -1h-1l-1 -1h-1l-1 -1h-1l-1 -1l-1 -1h-1l-1 -1
h-1l-1 -1h-1l-1 -1l-1 -1h-1l-1 -1h-1l-1 -1h-1l-1 -1l-1 -1h-1l-1 -1h-1l-1 -1h-1l-1 -1l-1 -1h-1l-1 -1h-1l-1 -1h-1l-1 -1l-1 -1h-1l-1 -1h-1l-1 -1h-1l-1 -1l-1 -1h-1l-1 -1h-1l-1 -1h-1l-1 -1l-1 -1h-1l-1 -1l-45 63zM90 154l13 23l253 136l4 -5l34 -50l45 -63l-36 -20
l-36 -21l-90 -154h-33h-244zM982 620l-99 -171l-159 -91l-111 -63l-35 50l-43 62l-1 2l74 40l97 171h33h244zM605 620l-100 -171l29 -40l-178 -96l-95 136l100 171h244z" />
    <glyph glyph-name="y" unicode="y" horiz-adv-x="743" 
d="M372 299l32 56h131l-33 -56h-65h-65zM587 445l12 21l12 22h239l-24 -43h-239zM684 615h91l25 -43l25 -42h-190zM635 530h190l25 -42h-239zM850 488l-25 42h49zM874 530h-49l-25 42l-25 43h49zM824 615h99l-49 -85zM587 445l56 -90h-54h-54l26 45zM709 355h-66l-56 90h239
l-26 -45zM314 615h239l-48 -85l-25 -42l-24 -43l-26 -45l-26 -45h-67h-66l-54 90zM372 299h65h65l-32 -56l-10 -17l-42 -73h-130zM200 0l88 153h130l-87 -153h-131zM418 153h61l-83 -153h-65zM460 226l10 17h58l-49 -90h-61zM502 299h57l-14 -25l-17 -31h-58zM200 0h-60
l99 178l63 112l35 65h67l-32 -56l-84 -146zM502 299l33 56h54l-30 -56h-57zM337 355l-35 -65l-31 65h66zM559 299h36l-50 -25zM658 330l-41 -20l-22 -11h-36l30 56h54zM709 355l-51 -25l-15 25h66zM561 400l-26 -45h-131l26 45h33h32h33h33zM635 530h-32l48 85h33zM611 488
h-33l25 42h32zM587 445l-17 28l8 15h33l-12 -22zM554 445l16 28l17 -28h-33zM561 400h-33l26 45h33zM456 445h33l-26 -45h-33zM480 488h33l-24 -43h-33zM505 530h32l-24 -42h-33zM553 615h33l-49 -85h-32z" />
    <glyph glyph-name="z" unicode="z" horiz-adv-x="802" 
d="M982 620l-90 -154h-244l90 154h244zM738 620l-90 -154h-66h-67l90 154h133zM0 0l99 171h244l-99 -171h-244zM377 0h-133l99 171h67h67zM377 0l100 171h244l-100 -171h-244zM605 620l-90 -154h-244l90 154h244zM99 171l149 91l92 56l93 57l45 28l104 63h66h244l-379 -232
l-103 -63h-67h-244z" />
  </font>
</defs>
</svg>
